<svg xmlns="http://www.w3.org/2000/svg" viewBox="0 0 16 16"><g data-name="Layer 2"><path fill="#231f20" d="M8,2a6,6,0,1,0,6,6A6,6,0,0,0,8,2ZM8,13a5,5,0,1,1,5-5A5,5,0,0,1,8,13Z"/><path fill="#231f20" d="M8.43 4.55A2 2 0 0 0 6.11 5.86a.49.49 0 0 0 .32.63.5.5 0 0 0 .63-.33A1 1 0 0 1 8.2 5.52a1 1 0 0 1 .7 1.1 1 1 0 0 1-1 .77.5.5 0 0 0-.56.5V9.45a.5.5 0 0 0 .5.5h0a.49.49 0 0 0 .5-.49V8.36A2 2 0 0 0 9.89 6.79 2 2 0 0 0 8.43 4.55zM7.81 10.39h0a.53.53 0 0 0-.5.5V11a.47.47 0 0 0 .49.46h0a.53.53 0 0 0 .5-.52v-.08A.47.47 0 0 0 7.81 10.39z"/></g></svg>