<svg xmlns="http://www.w3.org/2000/svg" viewBox="0 0 16 16"><path fill="#231f20" d="M8 11a1.48 1.48 0 0 0-1 .48 1.5 1.5 0 0 0-.4 1.07A1.5 1.5 0 0 0 8 14h.05A1.5 1.5 0 0 0 9.5 12.45a1.48 1.48 0 0 0-.48-1A1.46 1.46 0 0 0 8 11zm.55 1.48a.52.52 0 0 1-.13.36A.5.5 0 0 1 8 13a.52.52 0 0 1-.36-.13.5.5 0 0 1-.16-.35.52.52 0 0 1 .13-.36A.5.5 0 0 1 8 12H8a.51.51 0 0 1 .34.13.5.5 0 0 1 .16.35zM8 6.5A1.5 1.5 0 1 0 9.5 8 1.5 1.5 0 0 0 8 6.5zm0 2A.5.5 0 1 1 8.5 8 .5.5 0 0 1 8 8.5zM8 5A1.5 1.5 0 1 0 6.5 3.5 1.5 1.5 0 0 0 8 5zM8 3a.5.5 0 1 1-.5.5A.5.5 0 0 1 8 3z" data-name="Layer 2"/></svg>