<svg xmlns="http://www.w3.org/2000/svg" viewBox="0 0 16 16"><path fill="#231f20" d="M3.5 9.5A1.5 1.5 0 0 1 2.4 7 1.5 1.5 0 0 1 4.52 6.9 1.48 1.48 0 0 1 5 8 1.5 1.5 0 0 1 3.55 9.5h0zm0-.5zm0-1.5h0a.5.5 0 0 0-.35.16A.52.52 0 0 0 3 8a.5.5 0 0 0 .16.35.52.52 0 0 0 .36.13h0a.5.5 0 0 0 .35-.16A.52.52 0 0 0 4 8a.5.5 0 0 0-.16-.35A.51.51 0 0 0 3.5 7.5zM8 9.5A1.5 1.5 0 1 1 9.5 8 1.5 1.5 0 0 1 8 9.5zm0-2a.5.5 0 1 0 .5.5A.5.5 0 0 0 8 7.5zM12.5 9.5A1.5 1.5 0 1 1 14 8 1.5 1.5 0 0 1 12.5 9.5zm0-2A.5.5 0 1 0 13 8 .5.5 0 0 0 12.5 7.5z" data-name="Layer 2"/></svg>